<?xml version="1.0" encoding="utf-8"?>
<!-- Generator: Adobe Illustrator 19.2.1, SVG Export Plug-In . SVG Version: 6.00 Build 0)  -->
<svg version="1.1" id="layer" xmlns="http://www.w3.org/2000/svg" xmlns:xlink="http://www.w3.org/1999/xlink" x="0px" y="0px"
	 viewBox="0 0 652 652" style="enable-background:new 0 0 652 652;" xml:space="preserve">
<style type="text/css">
	.st0{fill:#030000;}
	.st1{clip-path:url(#SVGID_2_);fill:url(#SVGID_3_);}
	.st2{clip-path:url(#SVGID_5_);fill:url(#SVGID_6_);}
	.st3{clip-path:url(#SVGID_8_);}
	.st4{clip-path:url(#SVGID_10_);fill:url(#SVGID_11_);}
	.st5{clip-path:url(#SVGID_13_);fill:url(#SVGID_14_);}
	.st6{fill:#221714;}
</style>
<g>
	<polyline class="st0" points="514.6,397.8 514.6,397.6 533.7,416.7 533.7,388 529.3,388 529.3,405.9 510.2,387.3 510.2,416 
		514.6,416 514.6,397.8 	"/>
	<polyline class="st0" points="504.9,411.6 493.7,411.6 493.7,403.3 502.4,403.3 502.4,398.9 493.7,398.9 493.7,392.3 505,392.3 
		505,388 489.3,388 489.3,416 504.9,416 504.9,411.6 	"/>
	<polyline class="st0" points="577.8,397.7 577.7,397.6 597,416.6 597,388 592.6,388 592.6,406.1 592.6,406 573.3,387.3 573.3,416 
		577.8,416 577.8,397.7 	"/>
	<path class="st0" d="M484.4,401.9c0-13.4-13.2-13.9-13.2-13.9h-9.3V416h9.3C471.2,416,484.4,414.9,484.4,401.9 M466.3,411.8V392
		h3.9c0,0,9.9-0.2,9.9,10c0,9.3-9,9.8-9,9.8H466.3z"/>
	<g>
		<path class="st0" d="M553.4,417c8.6,0.1,15.3-7.4,15.3-14.4c0-7.5-5.4-15.6-15.1-15.6c-7.2,0-15.2,5.9-15.2,15.1
			C538.4,409.1,543.7,416.9,553.4,417 M553.4,391.5c5.8,0,10.8,4.1,10.8,10.6c0,5.9-4.9,10.6-10.8,10.6c-5.8,0-10.5-4.8-10.5-10.6
			C542.9,396.3,547.6,391.5,553.4,391.5"/>
	</g>
	<path class="st0" d="M424.9,400.1h2.7c2.9,0,5.4,1.1,5.4,4.4c0,1.3-0.5,2.4-1.6,3.2c1.9,0.5,3.1,2.2,3.1,4.1c0,3.2-2.6,4.5-5.8,4.5
		h-3.7V400.1 M426.7,407.3h0.7c2,0,3.8-0.2,3.8-2.7c0-2.4-1.6-2.7-3.7-2.7h-0.7V407.3z M426.7,414.6h1.8c2,0,4.2-0.5,4.2-3
		c0-2.5-2.4-2.9-4.4-2.9h-1.6V414.6z"/>
	<polyline class="st0" points="435.7,400.1 437.7,400.1 441.9,407.3 446,400.1 448,400.1 442.7,409.4 442.7,416.3 440.9,416.3 
		440.9,409.4 435.7,400.1 	"/>
	<polyline class="st0" points="314.3,368.6 314.3,328.8 262,328.8 262,368.6 246,368.6 246,277.6 262,277.6 262,314.7 314.3,314.7 
		314.3,277.6 330.3,277.6 330.3,368.6 314.3,368.6 	"/>
	<polyline class="st0" points="344.7,368.6 344.7,277.6 412,277.6 412,291.7 360.6,291.7 360.6,315.1 411,315.1 411,329.2 
		360.6,329.2 360.6,354.6 412,354.6 412,368.6 344.7,368.6 	"/>
	<path class="st0" d="M526.8,355.8l9-12.4c6.1,6.7,16.1,12.7,28.8,12.7c13.1,0,18.2-6.4,18.2-12.6c0-19.1-53-7.2-53-40.7
		c0-15.1,13.1-26.8,33.2-26.8c14,0,25.7,4.7,34,12.8l-9,11.9c-7.2-7.2-16.9-10.5-26.5-10.5c-9.3,0-15.3,4.6-15.3,11.3
		c0,17.1,52.9,6.6,52.9,40.4c0,15.1-10.8,28.2-35.2,28.2C547.2,370.3,535,364.3,526.8,355.8"/>
	<path class="st0" d="M472.8,276.1c-26.2,0-47.4,21.2-47.4,47.4c0,26.2,21.2,47.4,47.4,47.4c26.2,0,47.4-21.2,47.4-47.4
		C520.2,297.3,498.9,276.1,472.8,276.1 M472.8,355.4c-17.7,0-32-14.3-32-32c0-17.7,14.3-32,32-32c17.7,0,32,14.3,32,32
		C504.7,341.1,490.4,355.4,472.8,355.4z"/>
	<g>
		<defs>
			<path id="SVGID_1_" d="M62,287.5v68c0,10,8.1,18.1,18.1,18.1V269.4C70.1,269.4,62,277.5,62,287.5"/>
		</defs>
		<clipPath id="SVGID_2_">
			<use xlink:href="#SVGID_1_"  style="overflow:visible;"/>
		</clipPath>
		
			<linearGradient id="SVGID_3_" gradientUnits="userSpaceOnUse" x1="30.0927" y1="534.7293" x2="33.1184" y2="534.7293" gradientTransform="matrix(-3.000000e-006 57.208 57.208 3.000000e-006 -30519.7715 -1489.1249)">
			<stop  offset="0" style="stop-color:#E06C10"/>
			<stop  offset="0.162" style="stop-color:#DB4F15"/>
			<stop  offset="0.381" style="stop-color:#D52D1A"/>
			<stop  offset="0.5" style="stop-color:#D3201C"/>
			<stop  offset="0.6005" style="stop-color:#CA1F1C"/>
			<stop  offset="0.7669" style="stop-color:#B11E1E"/>
			<stop  offset="0.9776" style="stop-color:#881B20"/>
			<stop  offset="1" style="stop-color:#831B20"/>
		</linearGradient>
		<rect x="62" y="269.4" class="st1" width="18.1" height="104.3"/>
	</g>
	<path class="st0" d="M170.8,310.2v22.7c5,0,9.1-4.1,9.1-9.1v-4.5C179.9,314.2,175.8,310.2,170.8,310.2"/>
	<path class="st0" d="M188.9,296.6v49.9c5,0,9.1-4.1,9.1-9.1v-31.7C198,300.6,194,296.6,188.9,296.6"/>
	<path class="st0" d="M43.8,319.3v4.5c0,5,4.1,9.1,9.1,9.1v-22.7C47.9,310.2,43.8,314.2,43.8,319.3"/>
	<g>
		<path class="st0" d="M25.7,305.7v31.7c0,5,4.1,9.1,9.1,9.1v-49.9C29.7,296.6,25.7,300.6,25.7,305.7"/>
	</g>
	<g>
		<defs>
			<path id="SVGID_4_" d="M143.6,269.4v104.3c10,0,18.1-8.1,18.1-18.1v-68C161.7,277.5,153.6,269.4,143.6,269.4"/>
		</defs>
		<clipPath id="SVGID_5_">
			<use xlink:href="#SVGID_4_"  style="overflow:visible;"/>
		</clipPath>
		
			<linearGradient id="SVGID_6_" gradientUnits="userSpaceOnUse" x1="30.0927" y1="535.6846" x2="33.1184" y2="535.6846" gradientTransform="matrix(-3.000000e-006 57.208 57.208 3.000000e-006 -30492.791 -1489.1249)">
			<stop  offset="0" style="stop-color:#E06C10"/>
			<stop  offset="0.162" style="stop-color:#DB4F15"/>
			<stop  offset="0.381" style="stop-color:#D52D1A"/>
			<stop  offset="0.5" style="stop-color:#D3201C"/>
			<stop  offset="0.6005" style="stop-color:#CA1F1C"/>
			<stop  offset="0.7669" style="stop-color:#B11E1E"/>
			<stop  offset="0.9776" style="stop-color:#881B20"/>
			<stop  offset="1" style="stop-color:#831B20"/>
		</linearGradient>
		<rect x="143.6" y="269.4" class="st2" width="18.1" height="104.3"/>
	</g>
	<g>
		<defs>
			<path id="SVGID_7_" d="M111.8,233.1c-10,0-18.1,8.1-18.1,18.1v54.4c0,5,4.1,9.1,9.1,9.1h18.1c5,0,9.1-4.1,9.1-9.1v-54.4
				C130,241.2,121.9,233.1,111.8,233.1"/>
		</defs>
		<clipPath id="SVGID_8_">
			<use xlink:href="#SVGID_7_"  style="overflow:visible;"/>
		</clipPath>
		<g class="st3">
			<defs>
				<rect id="SVGID_9_" x="25.8" y="233.1" width="599.9" height="183.9"/>
			</defs>
			<clipPath id="SVGID_10_">
				<use xlink:href="#SVGID_9_"  style="overflow:visible;"/>
			</clipPath>
			
				<linearGradient id="SVGID_11_" gradientUnits="userSpaceOnUse" x1="30.0929" y1="538.9461" x2="33.1187" y2="538.9461" gradientTransform="matrix(-3.000000e-006 57.2 57.2 3.000000e-006 -30502.002 -1488.8889)">
				<stop  offset="0" style="stop-color:#E06C10"/>
				<stop  offset="0.162" style="stop-color:#DB4F15"/>
				<stop  offset="0.381" style="stop-color:#D52D1A"/>
				<stop  offset="0.5" style="stop-color:#D3201C"/>
				<stop  offset="0.6005" style="stop-color:#CA1F1C"/>
				<stop  offset="0.7669" style="stop-color:#B11E1E"/>
				<stop  offset="0.9776" style="stop-color:#881B20"/>
				<stop  offset="1" style="stop-color:#831B20"/>
			</linearGradient>
			<rect x="25.8" y="233.1" class="st4" width="599.9" height="183.9"/>
		</g>
	</g>
	<g>
		<defs>
			<path id="SVGID_12_" d="M120.9,328.3h-18.1c-5,0-9.1,4.1-9.1,9.1v54.4c0,10,8.1,18.1,18.1,18.1c10,0,18.1-8.1,18.1-18.1v-54.4
				C130,332.4,125.9,328.3,120.9,328.3"/>
		</defs>
		<clipPath id="SVGID_13_">
			<use xlink:href="#SVGID_12_"  style="overflow:visible;"/>
		</clipPath>
		
			<linearGradient id="SVGID_14_" gradientUnits="userSpaceOnUse" x1="30.0926" y1="535.2069" x2="33.1183" y2="535.2069" gradientTransform="matrix(-3.000000e-006 57.208 57.208 3.000000e-006 -30506.2832 -1489.1268)">
			<stop  offset="0" style="stop-color:#E06C10"/>
			<stop  offset="0.162" style="stop-color:#DB4F15"/>
			<stop  offset="0.381" style="stop-color:#D52D1A"/>
			<stop  offset="0.5" style="stop-color:#D3201C"/>
			<stop  offset="0.6005" style="stop-color:#CA1F1C"/>
			<stop  offset="0.7669" style="stop-color:#B11E1E"/>
			<stop  offset="0.9776" style="stop-color:#881B20"/>
			<stop  offset="1" style="stop-color:#831B20"/>
		</linearGradient>
		<rect x="93.7" y="328.3" class="st5" width="36.3" height="81.6"/>
	</g>
	<path class="st6" d="M616.6,275.6c4.9,0,9,3.9,9,9c0,5.2-4.1,9.1-9,9.1c-4.9,0-9.1-3.9-9.1-9.1
		C607.5,279.5,611.7,275.6,616.6,275.6 M616.6,292.3c4.2,0,7.4-3.3,7.4-7.7c0-4.3-3.2-7.6-7.4-7.6c-4.2,0-7.5,3.3-7.5,7.6
		C609.2,289,612.4,292.3,616.6,292.3z M613.1,279.3h4.1c2.5,0,3.7,1,3.7,3c0,1.9-1.2,2.7-2.8,2.9l3,4.7h-1.8l-2.9-4.5h-1.7v4.5h-1.6
		V279.3z M614.7,284h1.7c1.4,0,2.8-0.1,2.8-1.7c0-1.4-1.2-1.6-2.3-1.6h-2.2V284z"/>
</g>
</svg>
