<?xml version="1.0" encoding="iso-8859-1"?><svg version="1.1" xmlns="http://www.w3.org/2000/svg" xmlns:xlink="http://www.w3.org/1999/xlink" x="0px" y="0px"  viewBox="0 0 1000 250" style="enable-background:new 0 0 1000 250;" xml:space="preserve" width="170" height="40"><g id="BoundingBox"> <rect style="fill:none;" width="1000" height="250"/></g><g id="C_x5F_NRAD"> <path style="fill:#0098DD;" d="M186.548,206.221c-3.921,0-46.528,0-46.528,0c-49.043,0-67.276-15.977-67.276-58.965  c0-66.738,31.465-103.491,88.584-103.491c0,0,59.082,0,61.719,0l9.697-42.681h-86.181c-49.732,0-80.01,8.437-101.329,28.198  C17.192,55.366,0,104.478,0,158.945c0,67.139,24.297,89.971,96.084,89.971h80.947l0,0L186.548,206.221z"/> <polygon style="fill:#0098DD;" points="296.265,192.9 346.553,192.9 366.738,102.749 410.674,192.9 463.022,192.9 493.682,56.899   443.389,56.899 425.625,135.342 388.989,56.899 326.738,56.899 296.265,192.9  "/> <path style="fill-rule:evenodd;clip-rule:evenodd;fill:#0098DD;" d="M889.141,91.816h29.902c21.133,0,26.914,4.6,26.914,21.48  c0,27.436-13.828,44.702-35.879,44.702H874.18L889.141,91.816L889.141,91.816z M813.789,192.9h109.746  c49.922,0,76.465-29.922,76.465-86.318c0-34.912-15.703-49.683-52.539-49.683H844.277L813.789,192.9L813.789,192.9z"/> <path style="fill-rule:evenodd;clip-rule:evenodd;fill:#0098DD;" d="M633.75,175.762l-20.273-25.83  c31.211-6.719,47.656-24.366,47.656-51.597c0-29.546-17.188-41.436-60.371-41.436h-89.746L480.371,192.9h52.715l22.812-101.084  h33.457c14.961,0,22.813,4.6,22.813,13.233c0,12.275-7.109,18.408-21.699,18.408h-36.817l25.235,43.545  c14.765,25.137,16.074,25.898,45.625,25.898h52.656l0,0l16.465-24.355h55.527l-5.43,24.355h52.735l30.644-136.001h-63.554  c-44.688,0-46.367,0.962-75.352,42.012L633.75,175.762z M755.078,135.342h-40.371l15.703-23.96  c11.211-17.461,14.57-19.566,30.84-19.566h3.555L755.078,135.342L755.078,135.342z"/></g><g id="C_-_ueberfuellt_-_spart_aus"> <path style="fill:#FFE600;" d="M181.875,88.066l32.08,0.015l6.836-31.177l-57.061-0.005c-50.107,0-77.402,31.841-77.402,90.542  c0,33.76,14.4,45.459,56.275,45.459h47.641l7.368-32.793h-27.719c-3.257,0-8.897-0.322-11.7-0.498  c-0.117-0.029-0.341-0.088-0.341-0.088c-2.115-0.156-3.34-0.371-5.459-0.82c-1.045-0.225-1.817-0.352-2.754-0.605  c-1.377-0.391-2.202-0.625-2.979-0.889c-7.91-2.578-11.557-8.398-11.689-20.264C135.244,105.391,152.031,88.066,181.875,88.066z"/></g><g id="O_-_geteilt_-_spart_aus"> <path style="fill:#0098DD;" d="M242.28,56.904h-22.192l-6.836,30.469l-32.085-0.019c-30.093,0-46.934,17.602-46.934,49.648  c0,16.787,6.958,21.367,22.281,22.5c0,0,2.011,0.137,4.599,0.273c-16.455-1.299-21.948-6.982-21.948-21.367  c0-29.336,15.581-45.449,42.681-45.449l34.458,0.005c21.489,0,27.099,4.214,27.099,20.332c0,30.493-13.833,46.802-39.443,46.802  l-7.056,0.01l-7.363,32.783h29.932c50.844,0,79.814-31.074,79.814-85.733C299.287,70.337,284.15,56.904,242.28,56.904z"/></g></svg>