<?xml version="1.0" encoding="UTF-8"?>
<!-- Generator: Adobe Illustrator 16.0.0, SVG Export Plug-In . SVG Version: 6.00 Build 0)  -->
<svg width="600" height="600" enable-background="new 0 0 103.659 103.659" version="1.1" viewBox="0 0 600 600" xml:space="preserve" xmlns="http://www.w3.org/2000/svg">
<g transform="matrix(7.7633 0 0 7.7633 -102.09 -3954.9)"><g transform="translate(0 496.34)">
	<linearGradient id="SVGID_1_" x1="51.829" x2="51.829" y1="84.631" y2="19.028" gradientUnits="userSpaceOnUse">
		<stop stop-color="#C8E63C" offset="0"/>
		<stop stop-color="#C3E43B" offset=".0185"/>
		<stop stop-color="#7FD02D" offset=".2608"/>
		<stop stop-color="#64C828" offset=".3742"/>
		<stop stop-color="#5EC727" offset=".4803"/>
		<stop stop-color="#4EC424" offset=".6201"/>
		<stop stop-color="#32BE1E" offset=".7787"/>
		<stop stop-color="#0CB616" offset=".95"/>
		<stop stop-color="#00B414" offset="1"/>
	</linearGradient>
	<path d="m84.63 72.873c0 6.49-5.267 11.758-11.761 11.758h-42.083c-6.496 0-11.758-5.268-11.758-11.758v-42.086c0-6.496 5.262-11.759 11.758-11.759h42.084c6.494 0 11.761 5.264 11.761 11.759v42.086z" fill="url(#SVGID_1_)"/>
			<path d="m45.448 49.809c-1.771 0-3.524-0.711-4.812-1.951l-0.46-0.444-0.459 0.444c-1.288 1.24-3.04 1.951-4.809 1.951-3.819 0-6.925-3.104-6.925-6.921v-12.11h3.306v12.11c0 1.996 1.622 3.618 3.619 3.618 1.995 0 3.62-1.622 3.62-3.618v-12.11h3.299v12.11c0 1.996 1.624 3.618 3.621 3.618 1.995 0 3.618-1.622 3.618-3.618v-12.11h3.306v12.11c0 3.817-3.105 6.921-6.924 6.921z" fill="#fff"/>
			<path d="m49.068 72.743v-12.11c0-1.996-1.625-3.621-3.619-3.621-1.998 0-3.62 1.625-3.62 3.621v12.11h-3.301v-12.11c0-1.996-1.622-3.621-3.622-3.621-1.994 0-3.616 1.625-3.616 3.621v12.11h-3.305v-12.11c0-3.814 3.107-6.921 6.921-6.921 1.772 0 3.528 0.71 4.816 1.95l0.456 0.444 0.461-0.444c1.29-1.24 3.041-1.95 4.809-1.95 3.816 0 6.922 3.106 6.922 6.921v12.11z" fill="#fff"/>
			<path d="m66.076 73.105c-5.714 0-10.357-4.431-10.357-9.878 0-5.445 4.644-9.878 10.357-9.878 5.711 0 10.358 4.433 10.358 9.878 0 5.448-4.647 9.878-10.358 9.878zm0-16.555c-3.887 0-7.05 2.996-7.05 6.678 0 3.681 3.163 6.676 7.05 6.676 3.888 0 7.047-2.995 7.047-6.676 0-3.682-3.16-6.678-7.047-6.678z" fill="#fff"/>
			<path d="m66.08 50.17c-5.715 0-10.363-4.43-10.363-9.876s4.648-9.877 10.363-9.877c5.708 0 10.356 4.431 10.356 9.877 0 0.259-0.011 0.513-0.03 0.765l-0.043 0.48h-17.287l0.312 0.887c0.967 2.718 3.655 4.545 6.691 4.545 2.267 0 4.411-1.047 5.738-2.798l0.298-0.4 2.705 1.844-0.328 0.438c-1.943 2.577-5.089 4.115-8.412 4.115zm0-16.591c-2.698 0-5.145 1.414-6.386 3.686l-0.532 0.98h13.828l-0.532-0.98c-1.24-2.273-3.684-3.686-6.378-3.686z" fill="#fff"/>
</g><g transform="translate(0 496.34)">
		<path d="m86.883 84.628c-1.485 0-2.715-1.155-2.715-2.745s1.229-2.745 2.715-2.745 2.715 1.155 2.715 2.745-1.229 2.745-2.715 2.745zm0-5.055c-1.245 0-2.265 0.96-2.265 2.31 0 1.335 1.02 2.295 2.265 2.295s2.25-0.96 2.25-2.295c0-1.35-1.005-2.31-2.25-2.31zm-0.434 2.699v1.021h-0.63v-2.88h1.26c0.63 0 1.02 0.345 1.02 0.944 0 0.45-0.24 0.75-0.63 0.855l0.735 1.08h-0.705l-0.675-1.021h-0.375zm0.599-1.319h-0.6v0.795h0.6c0.285 0 0.45-0.181 0.45-0.391 1e-3 -0.224-0.165-0.404-0.45-0.404z" fill="#43b02a"/>
</g></g>
</svg>
