<svg id="snapcraft" xmlns="http://www.w3.org/2000/svg" viewBox="0 0 840 600"><defs><style>.cls-1{fill:#464646;}.cls-2{fill:#82bea0;}.cls-3{fill:#fa6441;}</style></defs><title>snapcraft_green-red_st_hexArtboard 1</title><path class="cls-1" d="M204.48,418.31A25.48,25.48,0,0,0,216,416q4.56-2.31,4.56-7.8a11.28,11.28,0,0,0-.81-4.49,8.87,8.87,0,0,0-2.68-3.37,23,23,0,0,0-4.93-2.87q-3.06-1.38-7.55-3.25-3.62-1.5-6.87-3.06a27.89,27.89,0,0,1-5.74-3.62,15.71,15.71,0,0,1-4-4.93,15,15,0,0,1-1.5-7,15.68,15.68,0,0,1,5.93-12.74q5.93-4.87,16.3-4.87a44.2,44.2,0,0,1,10.92,1.12,34.63,34.63,0,0,1,6.06,2l-1.87,7.24a48.72,48.72,0,0,0-5.06-2q-3.56-1.25-10.43-1.25a23,23,0,0,0-5.18.56,13.81,13.81,0,0,0-4.31,1.75,9.37,9.37,0,0,0-3,3,8.27,8.27,0,0,0-1.12,4.44,9.46,9.46,0,0,0,1,4.51,10,10,0,0,0,2.94,3.32,24.7,24.7,0,0,0,4.74,2.68q2.81,1.24,6.43,2.73t7.18,3a26.5,26.5,0,0,1,6.06,3.74,17.32,17.32,0,0,1,4.25,5.25,16.28,16.28,0,0,1,1.62,7.68q0,8.74-6.56,13.24t-17.92,4.5q-8.49,0-13-1.44a49.43,49.43,0,0,1-6-2.19l2.12-7.37a13.1,13.1,0,0,0,1.62.81,33.94,33.94,0,0,0,3.37,1.25,36.31,36.31,0,0,0,5.06,1.19A41.05,41.05,0,0,0,204.48,418.31Z"/><path class="cls-1" d="M240.1,361.75q3.62-1,9.74-2.25a76.57,76.57,0,0,1,15-1.25,31.2,31.2,0,0,1,12.3,2.13,18.86,18.86,0,0,1,7.87,6.05,24.72,24.72,0,0,1,4.18,9.43A54.78,54.78,0,0,1,290.42,388v36.09h-8.12V390.59a61.34,61.34,0,0,0-.93-11.61,19.42,19.42,0,0,0-3.12-7.74,12.14,12.14,0,0,0-5.74-4.31,26.09,26.09,0,0,0-8.93-1.31,68,68,0,0,0-9.93.63,30.45,30.45,0,0,0-5.43,1.12v56.69H240.1Z"/><path class="cls-1" d="M325.81,358a28.61,28.61,0,0,1,10.8,1.81,18.55,18.55,0,0,1,7.18,5,19.67,19.67,0,0,1,4,7.55,34.49,34.49,0,0,1,1.25,9.49v40.71a36.69,36.69,0,0,1-3.62.81q-2.38.44-5.49.93t-6.93.81q-3.81.31-7.8.31a37.22,37.22,0,0,1-9.43-1.12,20.85,20.85,0,0,1-7.49-3.56,16.75,16.75,0,0,1-5-6.24,21.51,21.51,0,0,1-1.81-9.3,18.87,18.87,0,0,1,2-9,17,17,0,0,1,5.62-6.18,25.11,25.11,0,0,1,8.62-3.56,49.55,49.55,0,0,1,10.86-1.12c1.17,0,2.39.06,3.69.19s2.54.29,3.74.5,2.25.42,3.12.62a9.84,9.84,0,0,1,1.81.56v-4a42.53,42.53,0,0,0-.5-6.56,14.36,14.36,0,0,0-2.19-5.74,12.14,12.14,0,0,0-4.74-4.12,17.78,17.78,0,0,0-8.05-1.56,41.65,41.65,0,0,0-10.61,1q-3.49,1-5.12,1.62l-1.12-7.12a30.06,30.06,0,0,1,6.56-1.87A56,56,0,0,1,325.81,358Zm.75,60.19q4.75,0,8.3-.31a56.37,56.37,0,0,0,6.06-.81V394.34a24.84,24.84,0,0,0-4.37-1.31,38.69,38.69,0,0,0-8.24-.69,46.82,46.82,0,0,0-6.24.44,18.12,18.12,0,0,0-6,1.87,12.46,12.46,0,0,0-4.49,3.93,11.32,11.32,0,0,0-1.75,6.62,14.17,14.17,0,0,0,1.19,6.12,9.86,9.86,0,0,0,3.37,4,14.94,14.94,0,0,0,5.25,2.19A31.65,31.65,0,0,0,326.56,418.19Z"/><path class="cls-1" d="M371.18,447.16h-8.12V361.75a73.38,73.38,0,0,1,9.24-2.37,74.54,74.54,0,0,1,14.23-1.12,34.72,34.72,0,0,1,12.92,2.31,28,28,0,0,1,10,6.68,30.43,30.43,0,0,1,6.49,10.61A40.48,40.48,0,0,1,418.25,392a45.13,45.13,0,0,1-1.94,13.55,30.19,30.19,0,0,1-5.68,10.61,26.1,26.1,0,0,1-9.18,6.93,29.42,29.42,0,0,1-12.43,2.5A30.6,30.6,0,0,1,378,423.74a28.79,28.79,0,0,1-6.8-3.43Zm0-34.71a27,27,0,0,0,2.81,1.88,26.56,26.56,0,0,0,3.93,1.87,31.75,31.75,0,0,0,4.87,1.43,26.11,26.11,0,0,0,5.5.56,22,22,0,0,0,10-2.06,17.57,17.57,0,0,0,6.56-5.62,23.83,23.83,0,0,0,3.62-8.36A44.51,44.51,0,0,0,409.64,392q0-12.74-6.37-19.54t-16.86-6.81a66.9,66.9,0,0,0-9.68.56,36.29,36.29,0,0,0-5.56,1.19Z"/><path class="cls-1" d="M472.94,420.81a16.43,16.43,0,0,1-3.25,1.56,42.11,42.11,0,0,1-4.06,1.25,39.41,39.41,0,0,1-4.49.87,32.73,32.73,0,0,1-4.31.31q-14,0-21.6-8.43t-7.62-24a46.18,46.18,0,0,1,2-14.11,30.81,30.81,0,0,1,5.68-10.61,24.21,24.21,0,0,1,9-6.68,29.58,29.58,0,0,1,11.92-2.31,46.59,46.59,0,0,1,9,.75,24.64,24.64,0,0,1,6.62,2.25l-1.25,3.87a22,22,0,0,0-6.24-2.12,41.45,41.45,0,0,0-8.12-.75q-11.61,0-17.86,7.74t-6.24,22q0,14,6.31,21.23t18.42,7.24a32.41,32.41,0,0,0,8-1.12,27.67,27.67,0,0,0,7.12-2.75Z"/><path class="cls-1" d="M489.28,424.06H485V363.24a41.74,41.74,0,0,1,9.43-3.37,44.56,44.56,0,0,1,9.93-1.12,33,33,0,0,1,11.49,1.62l-.87,3.74a26,26,0,0,0-4.74-1,47.31,47.31,0,0,0-6.12-.37,38,38,0,0,0-7.68.81,33.14,33.14,0,0,0-7.18,2.31Z"/><path class="cls-1" d="M565.59,421.93a67.54,67.54,0,0,1-10.05,2.13,78.48,78.48,0,0,1-10.68.75q-12.24,0-18.48-4.93t-6.24-14.67q0-9.36,6.49-14.17t19.6-4.81a50.36,50.36,0,0,1,8,.69,43.08,43.08,0,0,1,7.12,1.68v-4.87q0-11.24-4.18-16.23t-14.42-5a42.84,42.84,0,0,0-8.18.81,26.65,26.65,0,0,0-6.68,2.06l-.62-4q6.37-2.87,16.23-2.87,11.49,0,16.79,5.93t5.31,16.92Zm-4.24-29.59a36.46,36.46,0,0,0-6.74-1.75,50.41,50.41,0,0,0-8.24-.62q-21.73,0-21.73,15.23,0,8,5.05,11.8t15.8,3.81a76,76,0,0,0,7.93-.44,51.31,51.31,0,0,0,7.93-1.43Z"/><path class="cls-1" d="M582.89,424.06h-4.25v-72.3q0-12.74,5.43-18.67t16.42-5.93a31.76,31.76,0,0,1,6.68.69,21.85,21.85,0,0,1,4.93,1.56l-1,3.87a23.92,23.92,0,0,0-5.19-1.56,28.92,28.92,0,0,0-5.43-.56q-8.87,0-13.23,4.68T582.89,352v8h27v4h-27Z"/><path class="cls-1" d="M654.5,421.43a30.94,30.94,0,0,1-6.37,2.37,28.58,28.58,0,0,1-7.37,1q-10,0-14.73-5.12T621.28,402V340l4.25-1v21h26.1v3.75h-26.1v38.83a33.62,33.62,0,0,0,1,8.93,12.91,12.91,0,0,0,3,5.62,10.69,10.69,0,0,0,4.81,2.87,23.07,23.07,0,0,0,6.43.81,25.49,25.49,0,0,0,7.18-1,26.44,26.44,0,0,0,5.43-2.12Z"/><polygon class="cls-2" points="422.28 218.33 291.81 88.64 422.28 135.8 422.28 218.33"/><polygon class="cls-2" points="327.96 312.64 421.03 219.58 392.64 191.37 327.96 312.64"/><polygon class="cls-2" points="424.05 216.56 479.35 161.25 424.05 136.67 424.05 216.56"/><polygon class="cls-3" points="504.8 135.8 426.44 135.8 527.19 180.58 504.8 135.8"/></svg>