<?xml version="1.0" encoding="UTF-8" standalone="no"?>
<svg
   xmlns:dc="http://purl.org/dc/elements/1.1/"
   xmlns:cc="http://creativecommons.org/ns#"
   xmlns:rdf="http://www.w3.org/1999/02/22-rdf-syntax-ns#"
   xmlns:svg="http://www.w3.org/2000/svg"
   xmlns="http://www.w3.org/2000/svg"
   xml:space="preserve"
   enable-background="new 0 0 612 792"
   viewBox="0 0 560.56488 600.60962"
   height="600.60962"
   width="560.56488"
   y="0px"
   x="0px"
   id="Ebene_1"
   version="1.1"><metadata
   id="metadata33"><rdf:RDF><cc:Work
       rdf:about=""><dc:format>image/svg+xml</dc:format><dc:type
         rdf:resource="http://purl.org/dc/dcmitype/StillImage" /><dc:title></dc:title></cc:Work></rdf:RDF></metadata><defs
   id="defs31" />
<g
   transform="translate(-28.538111,-69.457375)"
   id="g10">
	<path
   style="clip-rule:evenodd;fill-rule:evenodd"
   id="path2"
   d="m 282.478,453.791 c 1.041,0.066 2.082,0.131 3.123,0.203 7.985,0.551 15.618,2.424 22.75,6.129 5.096,2.648 9.614,6.076 13.644,10.164 4.376,4.438 7.995,9.414 10.721,15.027 2,4.119 3.389,8.443 4.35,12.914 1.179,5.48 1.567,11.029 1.333,16.613 -0.376,8.957 -2.358,17.521 -6.582,25.492 -2.947,5.561 -6.788,10.439 -11.357,14.754 -7.327,6.92 -15.915,11.434 -25.78,13.523 -3.653,0.773 -7.336,1.258 -11.067,1.375 -0.17,0.006 -0.337,0.055 -0.506,0.082 h -4.391 c -0.953,-0.066 -1.907,-0.134 -2.86,-0.203 -11.427,-0.826 -21.855,-4.359 -30.892,-11.549 -7.132,-5.674 -12.718,-12.6 -16.529,-20.91 -1.937,-4.225 -3.23,-8.652 -4.095,-13.213 -0.98,-5.158 -1.288,-10.365 -1.027,-15.598 0.55,-11.016 3.452,-21.301 9.843,-30.416 7.48,-10.664 17.261,-18.248 29.888,-21.914 3.848,-1.117 7.771,-1.861 11.77,-2.17 1.267,-0.098 2.538,-0.146 3.807,-0.225 0.207,-0.012 0.412,-0.053 0.618,-0.08 h 3.239 z m -1.736,101.33 c 4.062,-0.035 7.993,-0.365 11.848,-1.318 8.398,-2.074 15.38,-6.43 20.932,-13.072 5.666,-6.777 8.612,-14.654 9.413,-23.389 0.274,-2.988 0.306,-5.982 0.128,-8.98 -0.192,-3.254 -0.622,-6.475 -1.485,-9.621 -2.696,-9.828 -8.216,-17.668 -16.697,-23.34 -6.341,-4.24 -13.437,-6.182 -21.006,-6.557 -4.137,-0.203 -8.249,-0.018 -12.328,0.725 -7.126,1.293 -13.466,4.236 -18.93,9.023 -5.3,4.643 -9.128,10.281 -11.499,16.912 -1.795,5.018 -2.512,10.213 -2.588,15.518 -0.059,4.123 0.227,8.215 1.126,12.242 1.624,7.266 4.89,13.682 9.993,19.148 4.501,4.82 9.856,8.291 16.094,10.416 4.897,1.67 9.958,2.238 14.999,2.293" />
	<path
   style="clip-rule:evenodd;fill-rule:evenodd"
   id="path4"
   d="m 489.103,567.455 c -0.431,1.039 -0.759,1.252 -1.934,1.252 -3.834,0 -7.667,0.002 -11.503,0 -1.351,0 -1.849,-0.5 -1.849,-1.859 V 457.055 c 0,-1.408 0.497,-1.898 1.925,-1.9 3.834,0 7.668,-0.014 11.501,0.02 0.472,0.004 0.989,0.191 1.394,0.441 0.245,0.152 0.316,0.586 0.466,0.895 z" />
	<path
   style="clip-rule:evenodd;fill-rule:evenodd"
   id="path6"
   d="m 176.393,501.213 c 1.936,2.57 3.851,5.115 5.766,7.66 4.061,5.398 8.124,10.797 12.185,16.195 5.224,6.943 10.446,13.885 15.67,20.828 5.119,6.803 10.236,13.607 15.362,20.404 0.379,0.502 0.544,1.012 0.272,1.592 -0.276,0.588 -0.812,0.777 -1.416,0.813 -0.277,0.016 -0.557,0.002 -0.836,0.002 -4.723,0 -9.445,-0.004 -14.168,0.006 -0.808,0.002 -1.4,-0.27 -1.904,-0.943 -8.909,-11.904 -17.835,-23.797 -26.759,-35.691 -5.068,-6.754 -10.14,-13.506 -15.209,-20.258 -0.042,-0.057 -0.09,-0.105 -0.163,-0.191 -0.615,0.574 -1.226,1.141 -1.833,1.709 -4.111,3.844 -8.219,7.689 -12.329,11.531 -2.266,2.117 -4.532,4.234 -6.81,6.338 -0.294,0.271 -0.415,0.539 -0.414,0.939 0.01,11.502 0.008,23.005 0.008,34.506 0,0.139 0.004,0.279 0,0.418 -0.029,1.055 -0.565,1.627 -1.619,1.631 -4.027,0.016 -8.052,0.014 -12.077,0.002 -1.022,-0.004 -1.56,-0.578 -1.58,-1.604 -0.002,-0.121 0,-0.244 0,-0.365 v -109.58 -0.105 c 0,-1.387 0.501,-1.893 1.877,-1.893 3.677,-0.002 7.354,-0.002 11.032,-0.002 0.243,0 0.488,-0.008 0.731,0.002 1.065,0.049 1.588,0.572 1.635,1.633 0.007,0.158 0.001,0.314 0.001,0.471 v 53.117 0.736 c 0.913,-0.852 1.736,-1.617 2.556,-2.385 4.853,-4.553 9.704,-9.111 14.56,-13.662 6.368,-5.969 12.741,-11.932 19.109,-17.902 5.338,-5.004 10.672,-10.014 16.008,-15.02 2.249,-2.111 4.503,-4.215 6.745,-6.332 0.47,-0.443 1.004,-0.658 1.644,-0.658 5.629,0.002 11.258,0 16.887,0.002 0.959,0 1.501,0.348 1.703,1.064 0.167,0.592 -0.061,1.055 -0.476,1.451 -1.628,1.549 -3.257,3.096 -4.892,4.639 -2.89,2.725 -5.786,5.445 -8.676,8.17 -4.007,3.775 -8.013,7.551 -12.017,11.33 -4.104,3.873 -8.204,7.752 -12.309,11.625 -2.738,2.582 -5.48,5.158 -8.264,7.777" />
	<path
   style="clip-rule:evenodd;fill-rule:evenodd"
   id="path8"
   d="m 355.866,511.943 v -54.688 c 0,-0.158 -0.002,-0.314 0.001,-0.471 0.021,-1.033 0.54,-1.572 1.565,-1.629 0.07,-0.005 0.141,-0.002 0.21,-0.002 15.633,0.002 31.266,-0.037 46.898,0.021 7.19,0.027 14.071,1.643 20.634,4.578 5.71,2.555 10.728,6.113 15.086,10.592 7.098,7.293 11.814,15.895 14.132,25.816 1.335,5.713 1.887,11.498 1.765,17.352 -0.164,7.861 -1.527,15.494 -4.508,22.799 -2.488,6.098 -6.051,11.512 -10.54,16.32 -6.892,7.381 -15.261,12.23 -25.07,14.607 -4.232,1.025 -8.521,1.482 -12.876,1.477 -15.145,-0.023 -30.289,-0.008 -45.435,-0.01 -0.259,0 -0.521,-0.018 -0.776,-0.057 -0.56,-0.09 -0.906,-0.426 -1.006,-0.982 -0.052,-0.289 -0.077,-0.586 -0.077,-0.879 -0.003,-18.281 -0.003,-36.562 -0.003,-54.844 m 15.295,42.147 h 0.674 c 10.177,0 20.354,0.01 30.532,-0.01 1.826,-0.004 3.657,-0.08 5.478,-0.223 3.781,-0.297 7.386,-1.299 10.833,-2.877 4.508,-2.064 8.293,-5.07 11.554,-8.783 3.039,-3.462 5.438,-7.311 7.209,-11.557 1.884,-4.52 2.896,-9.236 3.272,-14.111 0.344,-4.449 0.204,-8.878 -0.466,-13.283 -0.794,-5.209 -2.487,-10.121 -5.106,-14.697 -2.91,-5.088 -6.666,-9.443 -11.486,-12.811 -5.772,-4.029 -12.253,-5.904 -19.252,-5.938 -10.892,-0.053 -21.784,-0.018 -32.676,-0.02 h -0.565 v 84.31 z" />
</g>
<g
   transform="translate(-28.538111,-69.457375)"
   id="g20">
	<path
   style="clip-rule:evenodd;fill:#31afe1;fill-rule:evenodd"
   id="path12"
   d="m 431.521,293.719 c -0.791,2.568 -2.526,4.448 -4.384,6.299 -12.448,12.406 -24.857,24.852 -37.278,37.284 -4.476,4.478 -9.259,4.465 -13.752,-0.032 -12.82,-12.83 -25.641,-25.659 -38.456,-38.491 -4.366,-4.372 -4.364,-9.144 0.013,-13.526 12.888,-12.906 25.778,-25.809 38.671,-38.708 4.195,-4.198 9.124,-4.2 13.318,-0.004 12.499,12.501 24.979,25.02 37.499,37.496 1.859,1.852 3.586,3.741 4.369,6.31 z" />
	<path
   style="clip-rule:evenodd;fill:#31afe1;fill-rule:evenodd"
   id="path14"
   d="m 307.953,413.914 c -2.556,-0.812 -4.408,-2.582 -6.251,-4.436 -12.395,-12.458 -24.828,-24.877 -37.247,-37.312 -4.444,-4.45 -4.449,-9.198 -0.015,-13.638 12.855,-12.865 25.709,-25.729 38.567,-38.592 4.274,-4.274 9.171,-4.29 13.422,-0.037 12.856,12.864 25.711,25.729 38.563,38.597 4.415,4.421 4.428,9.264 0.031,13.664 -12.527,12.541 -25.075,25.066 -37.573,37.633 -1.789,1.798 -3.629,3.415 -6.123,4.12 h -3.374 z" />
	<path
   style="clip-rule:evenodd;fill:#31afe1;fill-rule:evenodd"
   id="path16"
   d="m 262.841,261.207 c 0,-14.303 0.129,-28.608 -0.081,-42.909 -0.061,-4.14 0.928,-7.374 4.089,-10.104 2.543,-2.198 4.797,-4.733 7.179,-7.118 9.423,-9.433 18.845,-18.867 28.271,-28.296 4.433,-4.432 9.213,-4.429 13.643,0.002 12.821,12.825 25.641,25.653 38.459,38.482 4.403,4.407 4.4,9.254 -0.003,13.663 -15.16,15.179 -30.326,30.356 -45.49,45.533 -13.391,13.405 -26.78,26.809 -40.173,40.212 -2.481,2.482 -4.679,1.905 -5.581,-1.536 -0.278,-1.066 -0.3,-2.219 -0.301,-3.332 -0.018,-14.866 -0.012,-29.732 -0.012,-44.597" />
	<path
   style="clip-rule:evenodd;fill:#31afe1;fill-rule:evenodd"
   id="path18"
   d="m 232.182,292.201 c 0,13.127 0.019,26.256 -0.026,39.383 -0.005,1.247 -0.203,2.567 -0.65,3.724 -0.876,2.279 -2.52,2.561 -4.241,0.844 -6.037,-6.027 -12.057,-12.071 -18.083,-18.107 -6.965,-6.977 -13.932,-13.953 -20.894,-20.934 -2.882,-2.889 -2.895,-6.898 -0.024,-9.801 12.82,-12.967 25.643,-25.933 38.472,-38.895 0.848,-0.857 1.648,-2.02 3.089,-1.475 1.378,0.52 1.922,1.763 2.118,3.141 0.122,0.854 0.218,1.722 0.22,2.583 0.013,13.179 0.009,26.359 0.009,39.537 z" />
</g>
<g
   transform="translate(-28.538111,-69.457375)"
   id="g26">
	<path
   id="path22"
   d="M 503.611,456.92 H 500.84 V 464 h -0.9 v -7.08 h -2.771 v -0.863 h 6.443 v 0.863 z" />
	<path
   id="path24"
   d="M 512.48,456.057 V 464 h -0.9 v -6.576 l -2.94,3.78 -2.987,-3.78 V 464 h -0.9 v -7.943 h 1.044 l 2.844,3.768 2.796,-3.768 z" />
</g>
</svg>