<?xml version="1.0" encoding="UTF-8" standalone="no"?>
<svg
   xmlns:dc="http://purl.org/dc/elements/1.1/"
   xmlns:cc="http://web.resource.org/cc/"
   xmlns:rdf="http://www.w3.org/1999/02/22-rdf-syntax-ns#"
   xmlns:svg="http://www.w3.org/2000/svg"
   xmlns="http://www.w3.org/2000/svg"
   xmlns:sodipodi="http://inkscape.sourceforge.net/DTD/sodipodi-0.dtd"
   xmlns:inkscape="http://www.inkscape.org/namespaces/inkscape"
   version="1.1"
   id="VARG"
   x="0px"
   y="0px"
   width="214.993px"
   height="26.8px"
   viewBox="0 0 214.993 26.8"
   enable-background="new 0 0 214.993 26.8"
   xml:space="preserve"
   sodipodi:version="0.32"
   inkscape:version="0.43"
   sodipodi:docname="Bose_logo.svg"
   sodipodi:docbase="C:\Documents and Settings\Ãngel\Escritorio\Julio 2010"><metadata
   id="metadata18"><rdf:RDF><cc:Work
       rdf:about=""><dc:format>image/svg+xml</dc:format><dc:type
         rdf:resource="http://purl.org/dc/dcmitype/StillImage" /></cc:Work></rdf:RDF></metadata><defs
   id="defs16" /><sodipodi:namedview
   inkscape:window-height="721"
   inkscape:window-width="1024"
   inkscape:pageshadow="2"
   inkscape:pageopacity="0.0"
   borderopacity="1.0"
   bordercolor="#666666"
   pagecolor="#ffffff"
   id="base"
   inkscape:zoom="3.4884857"
   inkscape:cx="95.552941"
   inkscape:cy="43.669561"
   inkscape:window-x="-4"
   inkscape:window-y="-4"
   inkscape:current-layer="VARG" />

<path
   d="M146.242,11.473h-14.547l2.359-4.03c0.982-1.67,1.867-2.26,3.342-2.26c1.474,0,1.966,1.179,1.18,2.653h14.842l1.475-2.653 c1.081-1.966,1.081-4.129-1.573-4.129h-26.146c-2.359,0-4.227,0.295-5.603,2.556l-4.62,7.863c-1.277,2.261-1.179,4.129,1.966,4.129 h15.039l-2.457,4.324c-0.688,1.18-1.573,1.966-3.637,1.966c-1.77,0-1.671-1.179-0.885-2.358h-14.744l-1.77,2.949 c-1.081,1.868-0.196,3.539,2.359,3.539h25.949c2.359,0,4.423-1.081,5.603-3.047l4.423-7.372 C149.781,13.734,149.289,11.473,146.242,11.473z"
   id="path5" />
<path
   d="M209.391,5.91c-1.2,0-2.173,0.943-2.173,2.095c0,1.176,0.973,2.119,2.173,2.119c1.194,0,2.161-0.943,2.161-2.119 C211.552,6.853,210.585,5.91,209.391,5.91z M209.391,9.712c-0.979,0-1.761-0.746-1.761-1.708c0-0.931,0.781-1.683,1.761-1.683 c0.967,0,1.749,0.752,1.749,1.683C211.14,8.966,210.358,9.712,209.391,9.712z"
   id="path7" />
<path
   d="M112.725,1.054H90.51c-3.047,0-6.979,0-9.338,4.129l-9.83,16.709c-1.376,2.261-0.196,4.129,2.359,4.129h25.852 c2.654,0,4.325-0.787,6.389-4.129l9.83-16.709C117.049,3.021,115.083,1.054,112.725,1.054z M100.241,7.443L92.87,19.926 c-0.983,1.77-1.868,1.966-4.129,1.966s-2.851-0.786-2.162-1.966l7.47-12.483c1.082-1.868,2.359-2.26,4.227-2.26 S101.224,5.773,100.241,7.443z"
   id="path9" />
<path
   d="M 73.8,1.054 L 45.295,1.054 L 33.009,21.892 L 5.88,21.892 L 5.8935314,26.021 L 60.629,26.021 C 64.266,26.021 65.445,24.251 66.232,22.875 L 69.18,17.764 C 69.967,16.388 69.967,14.815 68.394,13.931 C 69.97,13.931 72.129,12.85 73.407,10.589 L 76.356,5.576 C 77.831,3.119 76.061,1.054 73.8,1.054 z M 59.155,17.863 L 57.68,20.221 C 57.287,21.008 56.599,21.892 54.928,21.892 L 47.654,21.892 L 51.392,15.602 L 58.466,15.602 C 59.744,15.602 59.744,16.781 59.155,17.863 z M 65.347,7.443 L 63.872,9.802 C 63.479,10.589 62.791,11.473 61.12,11.473 L 53.846,11.473 L 57.581,5.183 L 64.658,5.183 C 65.937,5.183 65.937,6.362 65.347,7.443 z "
   id="path11"
   sodipodi:nodetypes="cccccccccccccccccccccccccc" />
<path
   d="M210.501,7.456c0-0.197-0.089-0.406-0.268-0.507c-0.186-0.102-0.389-0.113-0.591-0.113h-1.057v2.357h0.358V8.106h0.423 l0.692,1.086h0.412l-0.734-1.086C210.167,8.095,210.501,7.921,210.501,7.456z M209.337,7.814h-0.394v-0.71h0.626 c0.305,0,0.573,0.041,0.573,0.346C210.143,7.874,209.677,7.814,209.337,7.814z"
   id="path13" />
<path
   d="M 174.21241,5.1800172 L 211.07241,5.1800172 L 211.06086,1.0510173 L 161.92641,1.0510173 L 147.28041,26.018017 L 181.48641,26.018017 L 183.94341,21.889017 L 164.38341,21.889017 L 168.11841,15.599017 L 187.67841,15.599017 L 190.03741,11.470017 L 170.57641,11.470017 L 174.21241,5.1800172 z "
   id="polygon1317"
   sodipodi:nodetypes="ccccccccccccc" /></svg>