<?xml version="1.0" encoding="UTF-8" standalone="no"?>
<svg
   data-name="Ebene 1"
   viewBox="0 0 100 23"
   version="1.1"
   id="svg6"
   sodipodi:docname="senec_logo_de_clean_resize_1.svg"
   inkscape:version="1.2.2 (b0a8486541, 2022-12-01)"
   width="100"
   height="23"
   xmlns:inkscape="http://www.inkscape.org/namespaces/inkscape"
   xmlns:sodipodi="http://sodipodi.sourceforge.net/DTD/sodipodi-0.dtd"
   xmlns="http://www.w3.org/2000/svg"
   xmlns:svg="http://www.w3.org/2000/svg">
  <defs
     id="defs10" />
  <sodipodi:namedview
     id="namedview8"
     pagecolor="#ffffff"
     bordercolor="#666666"
     borderopacity="1.0"
     inkscape:showpageshadow="2"
     inkscape:pageopacity="0.0"
     inkscape:pagecheckerboard="0"
     inkscape:deskcolor="#d1d1d1"
     showgrid="false"
     inkscape:zoom="3.0458796"
     inkscape:cx="5.9096229"
     inkscape:cy="65.170008"
     inkscape:window-width="1728"
     inkscape:window-height="1006"
     inkscape:window-x="0"
     inkscape:window-y="0"
     inkscape:window-maximized="1"
     inkscape:current-layer="svg6" />
  <path
     d="m 16.483695,17.845517 c 0,2.942408 -2.713129,5.216087 -6.9738891,5.216087 H 1.045605 c -0.55408995,0 -1.01264754,-0.458557 -1.01264754,-1.012647 v -2.445638 c 0,-0.55409 0.43945112,-1.012647 0.99354104,-1.031754 h 7.5661923 c 0.6687298,0 2.7322372,0 2.7322372,-1.757802 V 15.973075 A 1.6259672,1.6259672 0 0 0 9.8537235,14.215273 C 9.2614206,14.06242 4.6376363,13.030667 4.1981852,12.95424 A 5.1797851,5.1797851 0 0 1 0.01385098,7.4897667 V 5.7892839 C 0.01385098,2.789556 2.6505554,0 7.1596997,0 h 8.2158163 c 0.592303,0 0.802475,0.43945066 0.515876,0.84068815 L 14.381975,3.592031 C 14.076271,4.1079077 13.522181,4.432719 12.910771,4.432719 H 7.2552332 c -1.1463929,0 -2.0444004,0.9553274 -2.0444004,2.1017203 v 0.5731964 c 0.057314,0.7642619 0.6305158,1.4138846 1.394777,1.5476304 0,0 4.0314822,0.8406881 5.5791122,1.10818 3.229007,0.6687289 4.337187,2.9424099 4.337187,5.0059169 v 3.076154 z M 20.66803,1.0317536 C 20.66803,0.47766372 21.107481,0.01910658 21.661571,0 h 14.501868 c 0.592304,0 0.840688,0.36302443 0.515877,0.84068815 L 35.131686,3.592031 C 34.787769,4.0696947 34.252785,4.3753994 33.660482,4.432719 H 21.623357 c -0.554089,0 -1.012647,-0.420344 -1.031753,-0.9744339 V 3.4200721 Z M 55.499266,0 c -0.55409,0 -1.012647,0.42034408 -1.031753,0.97443391 V 13.56565 c 0,0.592303 -0.229279,0.668729 -0.592303,0.152852 L 45.277263,0.84068815 C 44.914238,0.34391785 44.341042,0.03821306 43.729633,0 H 41.455954 C 40.901864,0 40.443306,0.42034408 40.4242,0.97443391 V 22.02985 c 0,0.55409 0.420344,1.012648 0.974434,1.031754 h 3.114367 c 0.55409,0 1.012647,-0.420344 1.031753,-0.974434 V 9.9162979 c 0,-0.5923027 0.229279,-0.6687289 0.592303,-0.1528518 l 8.521521,12.4956829 c 0.363025,0.496771 0.936221,0.802475 1.547631,0.840688 h 2.426531 c 0.55409,0 1.012647,-0.420343 1.031754,-0.974433 V 1.0317536 A 1.0317536,1.0317536 0 0 0 58.670953,0 H 55.480159 Z M 21.699784,18.590672 c -0.55409,0 -1.012648,0.420344 -1.031754,0.974434 v 0.03821 l -0.07643,2.407425 c 0,0.55409 0.420343,1.012647 0.974433,1.031754 h 12.094445 c 0.592303,-0.05732 1.127287,-0.363024 1.471204,-0.840688 l 1.54763,-2.732237 c 0.286599,-0.515877 0.07643,-0.840688 -0.515877,-0.840688 L 21.699784,18.571565 Z M 20.66803,10.069151 c 0,-0.5540902 0.439451,-1.0126474 0.993541,-1.031754 h 11.998911 c 0.592303,0 0.840689,0.3630245 0.515876,0.840688 l -1.54763,2.713131 c -0.343917,0.477664 -0.878901,0.783369 -1.471204,0.840688 H 21.60425 c -0.55409,0 -1.012646,-0.420344 -1.031753,-0.974434 v -0.05732 l 0.07643,-2.350106 z M 65.855015,0 c -0.55409,0 -1.012647,0.42034408 -1.031754,0.97443391 v 0.0573194 l 0.07643,2.4265316 c 0,0.5540899 0.439451,1.0126471 0.993541,1.0317535 h 11.903379 c 0.592304,-0.057319 1.127286,-0.3630243 1.471205,-0.840688 L 80.853655,0.85979441 C 81.159359,0.34391785 80.93008,0.01910658 80.337778,0.01910658 H 65.874122 Z m -1.031754,19.603319 c 0,-0.55409 0.420344,-1.012647 0.974434,-1.031754 h 14.520976 c 0.592303,0 0.840688,0.363024 0.515877,0.840688 l -1.54763,2.713131 c -0.343919,0.477663 -0.878901,0.783367 -1.471204,0.840688 H 65.950548 c -0.55409,0.03821 -1.031754,-0.382132 -1.069967,-0.936222 v -0.03821 l -0.07643,-2.407424 z M 65.855015,9.037397 c -0.55409,0 -1.012647,0.4203441 -1.031754,0.974434 v 0.05731 l 0.07643,2.426533 c -0.03821,0.55409 0.382132,1.031753 0.955328,1.069967 h 9.495954 c 0.592303,-0.05733 1.127287,-0.363025 1.471204,-0.840688 l 1.54763,-2.713132 c 0.305702,-0.515867 0.07642,-0.8406783 -0.51588,-0.8406783 L 65.874122,9.0756101 Z m 25.62188,14.024207 h 5.36894 c 0.611409,0 1.165502,-0.324811 1.471206,-0.840688 l 1.54763,-2.732237 c 0.305699,-0.43945 0.07643,-0.840688 -0.51588,-0.840688 H 93.043632 C 90.024797,18.495139 89.012151,17.253214 89.012151,14.406339 V 8.0820696 a 3.5347113,3.5347113 0 0 1 3.439178,-3.6111374 h 4.337186 c 0.61141,0 1.165498,-0.3248114 1.471201,-0.8406882 l 1.54763,-2.78955585 C 100.11305,0.40123749 99.883772,0 99.291477,0 H 91.610641 C 86.834004,0 83.81517,3.6684572 83.81517,8.3113482 v 6.5344408 c 0.09554,4.26076 2.311892,8.234922 7.661725,8.234922 z"
     style="fill:#000099;fill-rule:evenodd;stroke-width:1"
     id="path4" />
</svg>
