<?xml version="1.0" encoding="UTF-8" standalone="no"?>
<!-- Created with Inkscape (http://www.inkscape.org/) -->
<svg
   xmlns:svg="http://www.w3.org/2000/svg"
   xmlns="http://www.w3.org/2000/svg"
   version="1.0"
   width="600"
   height="155"
   id="svg2"
   xml:space="preserve"><defs
     id="defs5" /><g
     transform="matrix(1.25,0,0,-1.25,-85.3175,208.42905)"
     id="g11"><path
       d="M 248.41317,92.867352 L 274.56135,92.867352 L 298.73517,164.22283 L 272.70861,164.22283 L 248.41317,92.867352"
       id="path31"
       style="fill:#50b848;fill-opacity:1;fill-rule:nonzero;stroke:none" /><path
       d="M 300.82874,149.20063 L 337.95028,149.20063 L 343.06498,164.22284 L 305.95537,164.22284 L 300.82874,149.20063"
       id="path35"
       style="fill:#4a6571;fill-opacity:1;fill-rule:nonzero;stroke:none" /><path
       d="M 281.59793,92.867352 L 319.11052,92.867352 L 324.22523,107.88956 L 286.72932,107.88956 L 281.59793,92.867352"
       id="path39"
       style="fill:#4a6571;fill-opacity:1;fill-rule:nonzero;stroke:none" /><path
       d="M 291.23837,121.03518 L 326.2115,121.03518 L 331.3262,136.055 L 296.32208,136.055 L 291.23837,121.03518"
       id="path43"
       style="fill:#4a6571;fill-opacity:1;fill-rule:nonzero;stroke:none" /><path
       d="M 194.09478,164.22283 L 168.06821,164.22283 L 143.77278,92.867353 L 169.92095,92.867353 L 194.09478,164.22283"
       id="path47"
       style="fill:#50b848;fill-opacity:1;fill-rule:nonzero;stroke:none" /><path
       d="M 201.06698,92.867352 L 224.23694,92.867352 L 210.16853,129.86728 L 245.29665,164.22283 L 223.21639,164.22283 L 188.15265,130.02943 L 201.06698,92.867352"
       id="path51"
       style="fill:#4a6571;fill-opacity:1;fill-rule:nonzero;stroke:none" /><path
       d="M 351.60617,92.867352 L 377.75673,92.867352 L 401.92817,164.22283 L 375.90161,164.22283 L 351.60617,92.867352"
       id="path55"
       style="fill:#50b848;fill-opacity:1;fill-rule:nonzero;stroke:none" /><path
       d="M 394.85582,122.71385 L 402.56007,122.71385 C 411.58054,122.71385 417.16022,118.97261 415.13818,113.04003 C 413.12091,107.11222 405.72665,105.517 396.70379,105.517 L 388.96855,105.517 L 384.69795,92.864966 L 404.25543,92.864966 C 417.66096,92.864966 422.23916,94.448258 427.62569,98.401721 C 431.28348,101.06995 434.86735,105.65292 436.55317,111.24928 C 439.06879,119.58542 433.87302,127.53526 425.38905,128.93972 L 425.45581,129.13763 C 434.3976,131.41004 441.77041,135.55187 443.45385,145.6406 C 445.2279,156.26821 434.72189,164.22044 422.53006,164.22044 L 408.82409,164.22044 L 404.47719,150.97944 L 412.09559,150.97944 C 420.26004,150.97944 424.43049,147.13566 422.71128,142.09726 C 421.09699,137.35454 414.42761,135.3635 406.86882,135.3635 L 399.1288,135.3635 L 394.85582,122.71385"
       id="path59"
       style="fill:#4a6571;fill-opacity:1;fill-rule:nonzero;stroke:none" /><path
       d="M 506.66395,164.22283 L 480.63738,164.22283 L 456.34195,92.867353 L 482.49012,92.867353 L 506.66395,164.22283"
       id="path63"
       style="fill:#50b848;fill-opacity:1;fill-rule:nonzero;stroke:none" /><path
       d="M 534.63625,162.57754 L 535.92148,162.57754 C 536.57483,162.57754 537.29017,162.44401 537.29017,161.60706 C 537.29017,160.60796 536.50568,160.56266 535.64965,160.56266 L 534.63625,160.56266 L 534.63625,162.57754 z M 533.66338,157.04555 L 534.63625,157.04555 L 534.63625,159.76624 L 535.66158,159.76624 L 537.36171,157.04555 L 538.40849,157.04555 L 536.62013,159.84016 C 537.55008,159.94269 538.26304,160.41959 538.26304,161.56175 C 538.26304,162.77784 537.56439,163.37157 536.07647,163.37157 L 533.66338,163.37157 L 533.66338,157.04555 z M 531.33375,160.23121 C 531.33375,162.82314 533.24848,164.81656 535.74742,164.81656 C 538.22012,164.81656 540.13485,162.82314 540.13485,160.23121 C 540.13485,157.58206 538.22012,155.58148 535.74742,155.58148 C 533.24848,155.58148 531.33375,157.58206 531.33375,160.23121 z M 530.36327,160.23121 C 530.36327,157.11709 532.81928,154.78507 535.74742,154.78507 C 538.66125,154.78507 541.10534,157.11709 541.10534,160.23121 C 541.10534,163.28573 538.66125,165.61536 535.74742,165.61536 C 532.81928,165.61536 530.36327,163.28573 530.36327,160.23121"
       id="path67"
       style="fill:#4a6571;fill-opacity:1;fill-rule:evenodd;stroke:none" /><path
       d="M 507.46752,145.22093 L 515.63197,120.31507 L 498.97163,120.31507 L 493.79731,104.69913 L 520.85874,104.69913 L 524.87659,92.838737 L 548.254,92.838737 L 522.10344,164.19421 L 513.90561,164.19421 L 507.46752,145.22093"
       id="path71"
       style="fill:#4a6571;fill-opacity:1;fill-rule:nonzero;stroke:none" /><path
       d="M 77.238709,66.671487 L 77.293552,66.671487 L 80.54121,57.58186 L 73.933824,57.58186 L 77.238709,66.671487 z M 68.253999,49.527097 L 70.929383,49.527097 L 73.115948,55.39291 L 81.36147,55.39291 L 83.490808,49.527097 L 86.354565,49.527097 L 78.738545,69.015428 L 75.872404,69.015428 L 68.253999,49.527097"
       id="path75"
       style="fill:#4a6571;fill-opacity:1;fill-rule:evenodd;stroke:none" /><path
       d="M 102.07066,63.638433 L 99.748179,63.638433 L 99.748179,55.664742 C 99.748179,53.125273 98.384258,51.241537 95.570575,51.241537 C 93.798909,51.241537 92.706818,52.362241 92.706818,54.081449 L 92.706818,63.638433 L 90.384338,63.638433 L 90.384338,54.353279 C 90.384338,51.322609 91.531271,49.193271 95.243902,49.193271 C 97.263554,49.193271 98.849231,50.013531 99.831636,51.763737 L 99.886479,51.763737 L 99.886479,49.524713 L 102.07066,49.524713 L 102.07066,63.638433"
       id="path79"
       style="fill:#4a6571;fill-opacity:1;fill-rule:nonzero;stroke:none" /><path
       d="M 111.28188,67.868494 L 108.9594,67.868494 L 108.9594,63.638432 L 106.56062,63.638432 L 106.56062,61.587781 L 108.9594,61.587781 L 108.9594,52.605456 C 108.9594,50.013529 109.91796,49.524712 112.32151,49.524712 L 114.09795,49.524712 L 114.09795,51.568209 L 113.0297,51.568209 C 111.58232,51.568209 111.28188,51.761351 111.28188,52.824828 L 111.28188,61.587781 L 114.09795,61.587781 L 114.09795,63.638432 L 111.28188,63.638432 L 111.28188,67.868494"
       id="path83"
       style="fill:#4a6571;fill-opacity:1;fill-rule:nonzero;stroke:none" /><path
       d="M 120.8508,56.566074 C 120.8508,60.00449 122.81561,61.919225 125.24778,61.919225 C 127.67517,61.919225 129.64237,60.00449 129.64237,56.566074 C 129.64237,53.153887 127.67517,51.241537 125.24778,51.241537 C 122.81561,51.241537 120.8508,53.153887 120.8508,56.566074 z M 118.3924,56.566074 C 118.3924,52.443313 120.76734,49.193271 125.24778,49.193271 C 129.72344,49.193271 132.09599,52.443313 132.09599,56.566074 C 132.09599,60.71268 129.72344,63.965106 125.24778,63.965106 C 120.76734,63.965106 118.3924,60.71268 118.3924,56.566074"
       id="path87"
       style="fill:#4a6571;fill-opacity:1;fill-rule:evenodd;stroke:none" /><path
       d="M 137.32515,49.524713 L 139.64525,49.524713 L 139.64525,58.31628 C 139.64525,59.377372 140.65388,61.919225 143.4151,61.919225 C 145.4896,61.919225 146.05949,60.605378 146.05949,58.778869 L 146.05949,49.524713 L 148.38197,49.524713 L 148.38197,58.31628 C 148.38197,60.498077 149.82935,61.919225 152.06837,61.919225 C 154.33124,61.919225 154.7986,60.524306 154.7986,58.778869 L 154.7986,49.524713 L 157.11869,49.524713 L 157.11869,59.870959 C 157.11869,62.789559 155.23496,63.965106 152.42366,63.965106 C 150.62099,63.965106 148.95424,63.063774 148.00045,61.563938 C 147.42579,63.283146 145.8425,63.965106 144.12568,63.965106 C 142.18471,63.965106 140.60142,63.144846 139.56417,61.563938 L 139.50933,61.563938 L 139.50933,63.638433 L 137.32515,63.638433 L 137.32515,49.524713"
       id="path91"
       style="fill:#4a6571;fill-opacity:1;fill-rule:nonzero;stroke:none" /><path
       d="M 175.61269,51.377452 C 175.31225,51.267766 175.09526,51.239152 174.9045,51.239152 C 174.16531,51.239152 174.16531,51.730355 174.16531,52.82483 L 174.16531,60.085562 C 174.16531,63.390448 171.40647,63.962722 168.86939,63.962722 C 165.72903,63.962722 163.02504,62.737101 162.88912,59.241457 L 165.2116,59.241457 C 165.32129,61.315953 166.76628,61.919225 168.73347,61.919225 C 170.2047,61.919225 171.87145,61.587783 171.87145,59.570515 C 171.87145,57.820309 169.68965,57.984838 167.12157,57.493636 C 164.7204,57.028663 162.34307,56.346702 162.34307,53.153887 C 162.34307,50.33782 164.44618,49.193271 167.01188,49.193271 C 168.97907,49.193271 170.69828,49.872847 171.98352,51.377452 C 171.98352,49.849002 172.74416,49.193271 173.94594,49.193271 C 174.68513,49.193271 175.20494,49.331571 175.61269,49.574787 L 175.61269,51.377452 z M 171.84522,54.436736 C 171.84522,53.153887 170.5886,51.239152 167.52931,51.239152 C 166.11293,51.239152 164.79909,51.787582 164.79909,53.316032 C 164.79909,55.03524 166.11293,55.58367 167.639,55.8555 C 169.19845,56.129715 170.94388,56.155944 171.84522,56.811675 L 171.84522,54.436736"
       id="path95"
       style="fill:#4a6571;fill-opacity:1;fill-rule:evenodd;stroke:none" /><path
       d="M 183.48385,67.868494 L 181.16137,67.868494 L 181.16137,63.638432 L 178.7602,63.638432 L 178.7602,61.587781 L 181.16137,61.587781 L 181.16137,52.605456 C 181.16137,50.013529 182.11993,49.524712 184.5211,49.524712 L 186.29276,49.524712 L 186.29276,51.568209 L 185.22929,51.568209 C 183.78429,51.568209 183.48385,51.761351 183.48385,52.824828 L 183.48385,61.587781 L 186.29276,61.587781 L 186.29276,63.638432 L 183.48385,63.638432 L 183.48385,67.868494"
       id="path99"
       style="fill:#4a6571;fill-opacity:1;fill-rule:nonzero;stroke:none" /><path
       d="M 193.81579,69.015428 L 191.49536,69.015428 L 191.49536,66.176946 L 193.81579,66.176946 L 193.81579,69.015428 z M 191.49569,49.524712 L 193.81612,49.524712 L 193.81612,63.638194 L 191.49569,63.638194 L 191.49569,49.524712 z"
       id="path103"
       style="fill:#4a6571;fill-opacity:1;fill-rule:evenodd;stroke:none" /><path
       d="M 201.60588,56.566074 C 201.60588,60.00449 203.57069,61.919225 206.00047,61.919225 C 208.43264,61.919225 210.39983,60.00449 210.39983,56.566074 C 210.39983,53.153887 208.43264,51.241537 206.00047,51.241537 C 203.57069,51.241537 201.60588,53.153887 201.60588,56.566074 z M 199.14987,56.566074 C 199.14987,52.443313 201.52481,49.193271 206.00047,49.193271 C 210.47852,49.193271 212.85346,52.443313 212.85346,56.566074 C 212.85346,60.71268 210.47852,63.965106 206.00047,63.965106 C 201.52481,63.965106 199.14987,60.71268 199.14987,56.566074"
       id="path107"
       style="fill:#4a6571;fill-opacity:1;fill-rule:evenodd;stroke:none" /><path
       d="M 218.08261,49.524713 L 220.40509,49.524713 L 220.40509,57.49602 C 220.40509,60.030719 221.7714,61.919225 224.58031,61.919225 C 226.35675,61.919225 227.44884,60.798521 227.44884,59.079313 L 227.44884,49.524713 L 229.77132,49.524713 L 229.77132,58.805098 C 229.77132,61.835768 228.622,63.965106 224.90937,63.965106 C 222.88733,63.965106 221.30642,63.144846 220.32402,61.397024 L 220.26918,61.397024 L 220.26918,63.638433 L 218.08261,63.638433 L 218.08261,49.524713"
       id="path111"
       style="fill:#4a6571;fill-opacity:1;fill-rule:nonzero;stroke:none" /><path
       d="M 245.92615,49.524713 L 248.24625,49.524713 L 248.24625,51.406065 L 248.30109,51.406065 C 249.33834,49.7417 251.41283,49.193271 252.86021,49.193271 C 257.17611,49.193271 259.30307,52.555383 259.30307,56.539845 C 259.30307,60.524306 257.14511,63.965106 252.80298,63.965106 C 250.86917,63.965106 249.06412,63.283146 248.30109,61.726082 L 248.24625,61.726082 L 248.24625,69.015429 L 245.92615,69.015429 L 245.92615,49.524713 z M 256.84467,56.704374 C 256.84467,53.945534 255.78119,51.241537 252.61222,51.241537 C 249.41941,51.241537 248.16279,53.809618 248.16279,56.597072 C 248.16279,59.241457 249.36218,61.919225 252.47869,61.919225 C 255.47837,61.919225 256.84467,59.351143 256.84467,56.704374"
       id="path115"
       style="fill:#4a6571;fill-opacity:1;fill-rule:evenodd;stroke:none" /><path
       d="M 276.21139,63.638433 L 273.75776,63.638433 L 269.79715,52.088026 L 269.7423,52.088026 L 265.61954,63.638433 L 262.999,63.638433 L 268.59537,49.603401 L 267.63919,47.199848 C 267.20284,46.384357 266.6854,45.916999 265.72923,45.916999 C 265.26664,45.916999 264.79928,46.107757 264.36292,46.246057 L 264.36292,44.116719 C 264.88512,43.923576 265.42878,43.871118 265.97721,43.871118 C 268.04932,43.871118 269.0055,44.882136 270.06898,47.638592 L 276.21139,63.638433"
       id="path119"
       style="fill:#4a6571;fill-opacity:1;fill-rule:nonzero;stroke:none" /><path
       d="M 293.21987,69.015428 L 290.89827,69.015428 L 290.89827,66.176946 L 293.21987,66.176946 L 293.21987,69.015428 z M 290.89739,49.524712 L 293.21899,49.524712 L 293.21899,63.638194 L 290.89739,63.638194 L 290.89739,49.524712 z"
       id="path123"
       style="fill:#4a6571;fill-opacity:1;fill-rule:evenodd;stroke:none" /><path
       d="M 299.31698,49.524713 L 301.63708,49.524713 L 301.63708,57.49602 C 301.63708,60.030719 303.001,61.919225 305.81468,61.919225 C 307.58635,61.919225 308.68082,60.798521 308.68082,59.079313 L 308.68082,49.524713 L 311.00092,49.524713 L 311.00092,58.805098 C 311.00092,61.835768 309.85398,63.965106 306.14135,63.965106 C 304.1217,63.965106 302.53602,63.144846 301.55362,61.397024 L 301.50116,61.397024 L 301.50116,63.638433 L 299.31698,63.638433 L 299.31698,49.524713"
       id="path127"
       style="fill:#4a6571;fill-opacity:1;fill-rule:nonzero;stroke:none" /><path
       d="M 316.99072,49.524713 L 319.31082,49.524713 L 319.31082,57.49602 C 319.31082,60.030719 320.67712,61.919225 323.4908,61.919225 C 325.26486,61.919225 326.35695,60.798521 326.35695,59.079313 L 326.35695,49.524713 L 328.67704,49.524713 L 328.67704,58.805098 C 328.67704,61.835768 327.53249,63.965106 323.81748,63.965106 C 321.79783,63.965106 320.21215,63.144846 319.22974,61.397024 L 319.17729,61.397024 L 319.17729,63.638433 L 316.99072,63.638433 L 316.99072,49.524713"
       id="path131"
       style="fill:#4a6571;fill-opacity:1;fill-rule:nonzero;stroke:none" /><path
       d="M 336.35983,56.566074 C 336.35983,60.00449 338.32464,61.919225 340.75681,61.919225 C 343.1842,61.919225 345.1514,60.00449 345.1514,56.566074 C 345.1514,53.153887 343.1842,51.241537 340.75681,51.241537 C 338.32464,51.241537 336.35983,53.153887 336.35983,56.566074 z M 333.90143,56.566074 C 333.90143,52.443313 336.27637,49.193271 340.75681,49.193271 C 345.23247,49.193271 347.60741,52.443313 347.60741,56.566074 C 347.60741,60.71268 345.23247,63.965106 340.75681,63.965106 C 336.27637,63.965106 333.90143,60.71268 333.90143,56.566074"
       id="path135"
       style="fill:#4a6571;fill-opacity:1;fill-rule:evenodd;stroke:none" /><path
       d="M 364.35598,63.638433 L 361.92381,63.638433 L 358.07765,51.871039 L 358.02281,51.871039 L 354.06219,63.638433 L 351.47027,63.638433 L 356.70896,49.524713 L 359.19359,49.524713 L 364.35598,63.638433"
       id="path139"
       style="fill:#4a6571;fill-opacity:1;fill-rule:nonzero;stroke:none" /><path
       d="M 381.48844,51.377452 C 381.19038,51.267766 380.97101,51.239152 380.78263,51.239152 C 380.04345,51.239152 380.04345,51.730355 380.04345,52.82483 L 380.04345,60.085562 C 380.04345,63.390448 377.28699,63.962722 374.74752,63.962722 C 371.60717,63.962722 368.90555,62.737101 368.76964,59.241457 L 371.08974,59.241457 C 371.19704,61.315953 372.6468,61.919225 374.61161,61.919225 C 376.08521,61.919225 377.75196,61.587783 377.75196,59.570515 C 377.75196,57.820309 375.5654,57.984838 372.9997,57.493636 C 370.59615,57.028663 368.22121,56.346702 368.22121,53.153887 C 368.22121,50.33782 370.32432,49.193271 372.89002,49.193271 C 374.85721,49.193271 376.57642,49.872847 377.86165,51.377452 C 377.86165,49.849002 378.6223,49.193271 379.82646,49.193271 C 380.56326,49.193271 381.08308,49.331571 381.48844,49.574787 L 381.48844,51.377452 z M 377.72335,54.436736 C 377.72335,53.153887 376.46673,51.239152 373.40983,51.239152 C 371.98868,51.239152 370.67961,51.787582 370.67961,53.316032 C 370.67961,55.03524 371.98868,55.58367 373.51952,55.8555 C 375.0742,56.129715 376.82202,56.155944 377.72335,56.811675 L 377.72335,54.436736"
       id="path143"
       style="fill:#4a6571;fill-opacity:1;fill-rule:evenodd;stroke:none" /><path
       d="M 389.36437,67.868494 L 387.04427,67.868494 L 387.04427,63.638432 L 384.64072,63.638432 L 384.64072,61.587781 L 387.04427,61.587781 L 387.04427,52.605456 C 387.04427,50.013529 387.99806,49.524712 390.404,49.524712 L 392.17567,49.524712 L 392.17567,51.568209 L 391.10981,51.568209 C 389.66243,51.568209 389.36437,51.761351 389.36437,52.824828 L 389.36437,61.587781 L 392.17567,61.587781 L 392.17567,63.638432 L 389.36437,63.638432 L 389.36437,67.868494"
       id="path147"
       style="fill:#4a6571;fill-opacity:1;fill-rule:nonzero;stroke:none" /><path
       d="M 399.6963,69.015428 L 397.37353,69.015428 L 397.37353,66.176946 L 399.6963,66.176946 L 399.6963,69.015428 z M 397.37382,49.524712 L 399.69659,49.524712 L 399.69659,63.638194 L 397.37382,63.638194 L 397.37382,49.524712 z"
       id="path151"
       style="fill:#4a6571;fill-opacity:1;fill-rule:evenodd;stroke:none" /><path
       d="M 407.48639,56.566074 C 407.48639,60.00449 409.45358,61.919225 411.88098,61.919225 C 414.31076,61.919225 416.27796,60.00449 416.27796,56.566074 C 416.27796,53.153887 414.31076,51.241537 411.88098,51.241537 C 409.45358,51.241537 407.48639,53.153887 407.48639,56.566074 z M 405.02799,56.566074 C 405.02799,52.443313 407.40293,49.193271 411.88098,49.193271 C 416.36141,49.193271 418.73635,52.443313 418.73635,56.566074 C 418.73635,60.71268 416.36141,63.965106 411.88098,63.965106 C 407.40293,63.965106 405.02799,60.71268 405.02799,56.566074"
       id="path155"
       style="fill:#4a6571;fill-opacity:1;fill-rule:evenodd;stroke:none" /><path
       d="M 423.96313,49.524713 L 426.28323,49.524713 L 426.28323,57.49602 C 426.28323,60.030719 427.64715,61.919225 430.46083,61.919225 C 432.23488,61.919225 433.32697,60.798521 433.32697,59.079313 L 433.32697,49.524713 L 435.64707,49.524713 L 435.64707,58.805098 C 435.64707,61.835768 434.50013,63.965106 430.7875,63.965106 C 428.76785,63.965106 427.18217,63.144846 426.20215,61.397024 L 426.14731,61.397024 L 426.14731,63.638433 L 423.96313,63.638433 L 423.96313,49.524713"
       id="path159"
       style="fill:#4a6571;fill-opacity:1;fill-rule:nonzero;stroke:none" /><path
       d="M 442.15669,49.524713 L 445.18856,49.524713 L 445.18856,52.554191 L 442.15669,52.554191 L 442.15669,49.524713 z"
       id="path161"
       style="fill:#4a6571;fill-opacity:1;fill-rule:nonzero;stroke:none" /></g></svg>